<svg width="30" height="30" viewBox="0 0 31 30" fill="none" xmlns="http://www.w3.org/2000/svg">
<g clip-path="url(#clip0_40_18)">
<path fill-rule="evenodd" clip-rule="evenodd" d="M15.4553 0C7.18541 0 0.5 6.875 0.5 15.3803C0.5 22.1791 4.78357 27.9341 10.726 29.9709C11.469 30.1241 11.7411 29.64 11.7411 29.2328C11.7411 28.8762 11.7166 27.6541 11.7166 26.3806C7.55643 27.2975 6.6901 24.5472 6.6901 24.5472C6.02153 22.7647 5.03092 22.3066 5.03092 22.3066C3.66929 21.3644 5.1301 21.3644 5.1301 21.3644C6.64051 21.4662 7.43306 22.9431 7.43306 22.9431C8.7699 25.2856 10.9241 24.6237 11.7907 24.2162C11.9144 23.2231 12.3108 22.5356 12.7317 22.1537C9.41367 21.7972 5.92265 20.4731 5.92265 14.5653C5.92265 12.8847 6.51653 11.5097 7.45755 10.4403C7.30908 10.0584 6.78898 8.47937 7.60633 6.36594C7.60633 6.36594 8.86908 5.95844 11.7163 7.94469C12.9353 7.60802 14.1925 7.43675 15.4553 7.43531C16.7181 7.43531 18.0053 7.61375 19.194 7.94469C22.0415 5.95844 23.3043 6.36594 23.3043 6.36594C24.1216 8.47937 23.6012 10.0584 23.4528 10.4403C24.4186 11.5097 24.988 12.8847 24.988 14.5653C24.988 20.4731 21.4969 21.7716 18.1541 22.1537C18.699 22.6375 19.1692 23.5541 19.1692 25.0056C19.1692 27.0681 19.1447 28.7234 19.1447 29.2325C19.1447 29.64 19.4171 30.1241 20.1598 29.9712C26.1022 27.9337 30.3858 22.1791 30.3858 15.3803C30.4103 6.875 23.7004 0 15.4553 0Z" fill="#f2f2f2"/>
</g>
<defs>
<clipPath id="clip0_40_18">
<rect width="30" height="30" fill="white" transform="translate(0.5)"/>
</clipPath>
</defs>
</svg>
