<svg width="120" height="62" viewBox="0 0 120 62" fill="none" xmlns="http://www.w3.org/2000/svg">
<path d="M24.3145 25.1035V44H17.793V25.1035H7.54492V19.8477H34.5801V25.1035H24.3145Z" fill="black"/>
<path d="M54.9863 44H47.3926L35.1758 19.8477H42.4531L51.2422 38.0234L60.0137 19.8477H67.291L54.9863 44Z" fill="black"/>
<path d="M98 29.3915H80C78.2051 29.3915 76.7447 27.9312 76.7447 26.1361C76.7447 24.3411 78.2051 22.8808 80 22.8808H90.5702C91.3387 23.904 92.5623 24.5659 93.9404 24.5659C96.2671 24.5659 99.6851 22.6799 99.6851 20.3532C99.6851 18.0264 96.2671 16.1404 93.9404 16.1404C92.5284 16.1404 91.2796 16.8358 90.5152 17.9021H80C75.4598 17.9021 71.766 21.5958 71.766 26.1361C71.766 30.6764 75.4598 34.3702 80 34.3702H98C99.795 34.3702 101.255 35.8306 101.255 37.6256C101.255 39.4206 99.795 40.8809 98 40.8809H74.2553C72.8805 40.8809 71.766 41.9954 71.766 43.3702C71.766 44.7451 72.8805 45.8596 74.2553 45.8596H98C102.54 45.8596 106.234 42.1659 106.234 37.6256C106.234 33.0853 102.54 29.3915 98 29.3915Z" fill="#39B54A"/>
<path d="M98 28.6255H80C78.6274 28.6255 77.5107 27.5088 77.5107 26.1362C77.5107 24.7636 78.6274 23.6469 80 23.6469H90.2064C91.1518 24.7225 92.4921 25.332 93.9404 25.332C96.324 25.332 99.7549 23.6037 100.358 21.1192H103.408L104.113 21.8236C104.262 21.9732 104.458 22.048 104.654 22.048C104.85 22.048 105.046 21.9732 105.196 21.8236C105.495 21.5245 105.495 21.0395 105.196 20.7403L104.809 20.3532L105.196 19.9661C105.495 19.667 105.495 19.1819 105.196 18.8828C104.897 18.5837 104.412 18.5837 104.113 18.8828L103.408 19.5872H100.358C99.7549 17.1027 96.324 15.3745 93.9404 15.3745C92.4756 15.3745 91.0838 16.0264 90.1422 17.1361H80C75.0373 17.1361 71 21.1735 71 26.1361C71 31.0988 75.0373 35.1361 80 35.1361H98C99.3726 35.1361 100.489 36.2529 100.489 37.6255C100.489 38.998 99.3726 40.1148 98 40.1148H74.2553C72.4603 40.1149 71 41.5752 71 43.3702C71 45.1652 72.4603 46.6255 74.2553 46.6255H98C102.963 46.6255 107 42.5882 107 37.6255C107 32.6629 102.963 28.6255 98 28.6255ZM81.8 41.6468V45.0936H77.2042V41.6468H81.8ZM72.5319 43.3702C72.5319 42.4199 73.3051 41.6468 74.2553 41.6468H75.6723V45.0936H74.2553C73.3051 45.0936 72.5319 44.3206 72.5319 43.3702ZM98 45.0936H83.3319V41.6469H98C100.217 41.6469 102.021 39.8429 102.021 37.6256C102.021 35.4083 100.217 33.6042 98 33.6042H80C75.8821 33.6042 72.5319 30.2541 72.5319 26.1361C72.5319 22.0182 75.8821 18.6681 80 18.6681H90.5152C90.7621 18.6681 90.9938 18.5491 91.1376 18.3484C91.7849 17.4455 92.8327 16.9064 93.9404 16.9064C94.9485 16.9064 96.2519 17.3404 97.2609 18.012C98.3148 18.7135 98.9192 19.5668 98.9192 20.3532C98.9192 21.1396 98.3148 21.993 97.2609 22.6944C96.252 23.366 94.9485 23.8 93.9404 23.8C92.8462 23.8 91.841 23.2973 91.1825 22.4208C91.0378 22.2282 90.8109 22.1149 90.5701 22.1149H80C77.7827 22.1149 75.9788 23.9188 75.9788 26.1361C75.9788 28.3534 77.7827 30.1574 80 30.1574H98C102.118 30.1574 105.468 33.5076 105.468 37.6255C105.468 41.7435 102.118 45.0936 98 45.0936Z" fill="#231F20"/>
<path d="M94.0684 19.7979C94.4914 19.7979 94.8343 19.4549 94.8343 19.0319C94.8343 18.6088 94.4914 18.2659 94.0684 18.2659C93.6453 18.2659 93.3024 18.6088 93.3024 19.0319C93.3024 19.4549 93.6453 19.7979 94.0684 19.7979Z" fill="#231F20"/>
<path d="M94.0684 22.3493C94.4914 22.3493 94.8343 22.0064 94.8343 21.5833C94.8343 21.1603 94.4914 20.8174 94.0684 20.8174C93.6453 20.8174 93.3024 21.1603 93.3024 21.5833C93.3024 22.0064 93.6453 22.3493 94.0684 22.3493Z" fill="#231F20"/>
<path d="M79.5021 44.1745C79.9251 44.1745 80.2681 43.8315 80.2681 43.4085V43.3319C80.2681 42.9088 79.9251 42.5659 79.5021 42.5659C79.0791 42.5659 78.7361 42.9088 78.7361 43.3319V43.4085C78.7362 43.8315 79.0792 44.1745 79.5021 44.1745Z" fill="#231F20"/>
</svg>
